PathFileType	4	(X/Y/Z)	C:/Users/beibeiliu/ov580/test_trc\sequence.9_training_dense_right.trc
DataRate	CameraRate	NumFrames	NumMarkers	Units	OrigDataRate	OrigDataStartFrame	OrigNumFrames
120	120	18	19	mm	120	29	200
Frame#	Time	ThumbCMC			ThumbMCP			ThumbIP			ThumbTip			IndexMCP			IndexPIP			IndexTip			MiddleMCP			MiddlePIP			MiddleTip			RingMCP			RingPIP			RingTip			PinkyMCP			PinkyPIP			PinkyTip			BackHand1			BackHand2			BackHand3	
		X0	Y0	Z0	X1	Y1	Z1	X2	Y2	Z2	X3	Y3	Z3	X4	Y4	Z4	X5	Y5	Z5	X6	Y6	Z6	X7	Y7	Z7	X8	Y8	Z8	X9	Y9	Z9	X10	Y10	Z10	X11	Y11	Z11	X12	Y12	Z12	X13	Y13	Z13	X14	Y14	Z14	X15	Y15	Z15	X16	Y16	Z16	X17	Y17	Z17	X18	Y18	Z18	
28	0.233333	184.614	35.0968	115.19	169.357	43.9517	86.6541	163.831	46.5808	63.2687	158.48	42.7917	38.6585	204.361	7.13907	49.9842	188.932	12.3515	28.3141	157.439	24.7698	21.5546	203.136	-19.9672	52.7801	196.077	-21.2408	25.4832	176.104	-15.9758	-1.82991	192.787	-36.145	60.3042	189.262	-41.7664	33.7104	177.872	-37.7623	8.21604	173.85	-46.6131	73.9497	171.378	-55.3084	49.8859	164.391	-60.0701	25.8904	190.621	-26.8464	112.65	185.611	-22.6863	142.838	206.257	2.36281	119.546	
29	0.241667	183.712	34.1296	118.21	167.553	44.5309	91.036	162.919	50.1422	61.5851	158.222	40.2661	37.9737	200.097	5.00899	49.6011	186.084	11.268	28.7971	158.04	21.4054	22.6722	201.21	-21.273	51.5527	191.331	-22.1067	23.4047	173.491	-12.249	-2.82771	190.046	-35.9059	62.2361	187.708	-39.873	31.6793	176.329	-34.7285	5.59032	172.64	-45.3401	74.7884	168.874	-55.4327	48.5346	161.641	-60.0167	25.7633	189.657	-27.8778	110.797	185.582	-24.5623	142.24	204.439	4.15459	122.88	
30	0.25	184.996	34.8616	115.604	169.036	45.126	89.473	162.887	49.1632	65.1128	157.759	42.5423	42.6756	202.689	8.79181	51.387	182.839	10.5732	28.7109	157.418	20.5636	22.5864	199.939	-20.172	51.807	190.628	-21.6323	21.8634	170.355	-14.5587	-1.04317	190.717	-36.6711	59.5969	187.96	-38.6927	31.5487	171.173	-35.9137	3.965	173.253	-44.5574	72.5376	170.104	-51.8798	47.6497	162.27	-56.9258	24.9077	188.333	-28.6492	111.127	185.887	-23.2686	138.586	204.786	1.80777	122.411	
31	0.258333	184.704	33.98	117.124	168.614	44.3456	87.3076	163.307	48.8546	64.3149	157.021	43.4764	39.0696	201.353	4.31395	53.8797	183.034	11.5482	27.6499	154.252	20.0191	23.5803	200.326	-21.6985	50.7323	190.062	-23.2269	23.2646	170.38	-12.781	-3.10651	191.235	-35.5826	58.3263	185.727	-40.371	30.878	175.366	-33.9944	6.99834	171.738	-46.9503	73.5963	169.367	-52.7115	49.369	162.707	-54.53	22.9432	189.414	-27.3218	109.897	188.702	-22.326	141.006	203.267	-1.41207	121.627	
32	0.266667	184.945	36.916	119.675	168.565	45.932	87.3883	163.598	50.5998	61.4747	156.856	42.2392	38.7924	202.163	4.97865	54.5462	183.162	14.6865	26.8304	157.822	22.0993	23.5811	199.793	-19.2724	54.3628	191.627	-19.2537	22.3438	169.261	-15.5504	-0.859698	190.491	-35.5408	60.9903	187.428	-39.4753	32.577	171.739	-35.5123	5.52832	172.574	-45.0705	75.1169	167.105	-55.919	50.5066	160.342	-53.1756	21.3272	188.673	-30.2463	112.326	184.381	-25.8319	139.303	203.702	-2.25704	119.123	
33	0.275	183.635	34.9703	118.082	167.895	47.1625	91.9277	161.895	50.7609	64.864	157.181	43.4898	37.8214	202.066	7.56827	49.9183	184.476	12.2127	27.735	155.125	19.5795	24.102	197.054	-21.8192	55.1785	190.97	-21.514	23.2221	171.828	-14.6338	0.146153	189.685	-38.0414	58.3559	185.596	-42.0889	32.2077	171.022	-38.1704	8.51012	172.388	-47.1206	73.2332	167.855	-55.7865	50.0064	158.945	-56.8236	20.2438	189.757	-29.6215	112.158	186.179	-23.7253	137.412	203.622	2.58626	121.962	
34	0.283333	183.644	32.1904	115.863	168.899	45.6193	88.1325	162.721	45.6913	66.3519	157.349	42.3513	37.9739	198.238	1.82499	52.4485	180.993	12.8192	25.8635	154.775	19.8032	23.5291	199.967	-20.1326	50.3932	190.474	-22.9185	24.2055	166.999	-15.4195	-0.871965	189.519	-36.6437	60.0921	184.36	-42.8755	34.5294	171.083	-35.0139	4.73144	171.255	-47.3732	73.5363	166.18	-56.2598	49.417	160.365	-55.3759	22.9622	185.308	-30.3756	113.324	184.016	-23.2995	140.682	202.951	-0.381938	119.051	
35	0.291667	181.903	32.0449	119.539	168.711	44.0452	86.9093	163.167	48.4499	63.2552	157.31	37.7932	41.0665	199.047	4.06414	48.9912	179.828	6.912	29.491	153.536	20.4711	24.2393	197.599	-23.7529	50.084	187.509	-25.0896	22.7313	164.48	-19.44	0.852308	185.397	-39.7627	62.073	183.177	-41.4228	30.8479	166.206	-37.7919	4.56385	170.854	-48.6245	72.0476	166.197	-54.9263	52.2565	157.171	-55.523	23.6455	187.612	-29.1606	112.74	182.475	-24.033	143.09	200.785	-3.6561	120.913	
36	0.3	181.515	32.9045	116.525	168.829	45.0755	91.2815	166.293	47.1067	59.4829	160.143	38.6443	39.502	195.516	0.725974	51.326	179.147	9.32506	27.6648	149.963	17.9343	27.9712	196.599	-19.5915	50.4039	185.309	-23.1549	24.4093	162.965	-12.9742	-1.09902	184.444	-37.0927	62.0459	179.297	-41.157	30.5417	164.461	-34.2148	5.90053	165.821	-48.1643	76.2486	162.405	-57.5429	46.8663	157.858	-56.9458	26.0271	183.082	-27.3607	112.271	182.183	-22.888	137.964	197.913	-0.621245	123.585	
37	0.308333	178.973	31.7799	121.415	171.14	45.4785	91.8012	170.089	45.0347	59.6009	164.841	33.481	39.3756	195.202	2.03959	53.3064	177.154	5.20195	29.3393	148.532	21.3343	30.0774	195.77	-21.2479	50.8598	183.132	-24.1874	23.4876	158.136	-14.7812	1.84926	186.423	-38.116	61.9039	179.884	-40.7036	29.6886	165.674	-33.1382	7.77396	168.25	-51.6595	74.409	164.115	-59.1553	47.5668	156.778	-56.6697	22.3868	185.798	-29.933	113.909	182.959	-27.4794	138.637	199.221	-1.44844	118.385	
38	0.316667	179.012	32.6383	123.318	172.351	43.7237	93.2847	172.498	42.1689	62.2843	167.41	32.4165	43.1632	193.998	2.41997	50.2839	174.749	8.40693	28.7415	145.386	19.5331	37.3549	194.172	-21.9757	52.8788	184.517	-20.2457	24.1737	157.552	-10.7531	2.47176	188.005	-35.8661	58.0783	180.923	-41.624	33.3465	163.962	-31.3994	8.81316	170.677	-50.265	76.8454	165.635	-60.7773	53.4697	157.005	-57.6445	26.9923	185.751	-28.2939	113.63	185.303	-23.8938	138.629	200.1	-1.2357	120.365	
39	0.325	178.306	35.9758	122.434	171.501	41.0943	90.1513	170.468	39.2239	64.1902	165.762	32.0003	44.3158	194.449	6.01773	55.2225	176.09	9.05271	28.4511	144.813	20.4075	37.3621	195.231	-17.655	49.6497	180.029	-19.9773	21.4625	151.32	-11.3991	5.60864	185.817	-38.3334	57.2805	178.484	-38.9542	30.7481	157.792	-29.3079	8.90802	172.251	-48.2547	74.2895	164.793	-59.7422	49.3342	151.124	-55.3487	24.1522	185.328	-31.1271	112.581	182.784	-25.981	141.68	199.894	0.904012	119.668	
40	0.333333	179.012	32.7026	119.603	168.716	40.0199	92.5058	167.712	41.7146	65.0681	165.014	30.3957	43.128	194.268	3.67929	53.4658	172.859	4.36054	29.6986	141.611	17.5998	40.9252	192.02	-22.8042	51.9782	180.558	-20.9686	24.5993	149.944	-11.7763	6.9414	182.332	-39.828	61.4378	175.661	-40.5774	31.3236	154.508	-33.6022	10.8486	168.345	-53.6558	75.2682	160.786	-61.3285	48.8839	146.517	-56.8741	25.3285	185.649	-30.2905	111.29	184.805	-27.5984	140.588	196.228	-2.80167	120.311	
41	0.341667	177.901	29.492	120.425	167.417	40.8801	93.9542	166.764	38.2309	64.6706	162.952	30.2185	40.0955	194.564	2.50896	52.7708	172.415	4.1655	29.3137	144.653	16.6935	37.0111	192.677	-23.286	49.1997	177.086	-25.5194	23.7356	146.543	-14.6017	8.89487	182.589	-42.1805	58.6807	176.208	-42.4835	33.3204	150.457	-32.9476	10.9067	166.406	-53.8635	77.6554	161.168	-58.8318	47.0666	145.842	-57.4474	26.8236	185.238	-33.3721	114.423	181.84	-28.3935	138.145	197.695	-1.25127	121.097	
42	0.35	178.224	27.977	120.223	166.847	38.7062	94.7031	166.318	39.8686	63.9695	163.161	31.3157	39.343	191.983	-2.16431	51.8198	173.693	1.35059	31.549	145.077	14.3763	37.923	191.398	-26.9858	51.1534	179.241	-27.8084	26.7338	150.218	-15.3122	9.11559	183.233	-38.9443	61.4497	174.831	-43.411	32.764	156.797	-33.0864	13.1124	166.082	-54.8384	78.5944	161.325	-62.8075	52.7834	147.254	-57.1671	26.0195	184.511	-33.067	115.518	181.275	-29.7155	139.612	197.572	-2.84901	119.069	
43	0.358333	178.87	30.7047	121.266	166.98	36.7484	94.9925	165.406	38.7986	67.5593	162.212	30.6792	45.2533	193.211	-2.7181	57.4877	172.33	4.58451	29.6071	145.753	14.8792	36.2454	191.524	-24.429	56.7188	180.827	-24.3067	25.6032	153.994	-15.4338	9.67992	184.116	-40.4754	64.4537	175.128	-42.8486	32.3654	154.12	-36.9018	14.1176	168.122	-56.0979	78.3916	163.843	-60.7142	52.5724	149.046	-57.9805	27.9838	184.926	-32.4141	116.504	183.375	-29.3965	141.054	195.965	-5.36718	124.301	
44	0.366667	176.079	26.4229	119.705	165.363	36.8648	96.4962	163.35	39.1462	68.9937	159.95	30.6049	44.7857	192.702	-0.618354	52.3666	174.158	4.21734	30.6862	141.687	12.4598	38.9016	191.215	-22.9725	53.3213	177.077	-26.2187	25.5301	150.336	-14.9307	9.22038	183.24	-40.8744	60.3473	174.788	-42.1761	31.5196	153.361	-35.3939	13.8788	168.326	-50.832	77.1277	161.812	-61.0248	50.9492	151.398	-54.9854	27.5391	186.046	-34.2901	112.524	180.693	-28.3159	144.107	196.216	-2.42065	124.315	
45	0.375	172.606	28.5719	120.519	162.4	39.167	93.344	160.953	43.0407	66.0757	156.835	31.9814	41.4534	189.834	0.372317	56.9304	171.147	6.67556	30.6366	138.843	16.386	38.7086	190.56	-19.4623	53.5142	179.247	-21.4432	26.1216	147.87	-14.8843	9.10035	182.297	-35.6702	63.8942	174.251	-40.2402	31.7811	153.481	-33.2279	11.8929	168.164	-53.4902	75.9292	164.141	-57.7771	53.3119	147.851	-59.0349	26.1529	184.026	-28.7929	113.535	180.793	-29.5429	144.566	195.745	1.74566	120.559	
